<svg width="20" height="20" viewBox="0 0 20 20" fill="none" xmlns="http://www.w3.org/2000/svg">
<path d="M14.9322 11.9334C14.7164 12.1426 14.6172 12.4451 14.6664 12.7418L15.4072 16.8418C15.4697 17.1893 15.3231 17.5409 15.0322 17.7418C14.7472 17.9501 14.3681 17.9751 14.0572 17.8084L10.3664 15.8834C10.2381 15.8151 10.0956 15.7784 9.94973 15.7743H9.7239C9.64557 15.7859 9.5689 15.8109 9.4989 15.8493L5.80723 17.7834C5.62473 17.8751 5.41807 17.9076 5.21557 17.8751C4.72223 17.7818 4.39307 17.3118 4.4739 16.8159L5.21557 12.7159C5.26473 12.4168 5.16557 12.1126 4.94973 11.9001L1.94057 8.98344C1.6889 8.73927 1.6014 8.3726 1.7164 8.04177C1.82807 7.71177 2.11307 7.47094 2.45723 7.41677L6.5989 6.81594C6.9139 6.78344 7.19057 6.59177 7.33223 6.30844L9.15723 2.56677C9.20057 2.48344 9.2564 2.40677 9.3239 2.34177L9.3989 2.28344C9.43807 2.2401 9.48307 2.20427 9.53307 2.1751L9.6239 2.14177L9.76557 2.08344H10.1164C10.4297 2.11594 10.7056 2.30344 10.8497 2.58344L12.6989 6.30844C12.8322 6.58094 13.0914 6.7701 13.3906 6.81594L17.5322 7.41677C17.8822 7.46677 18.1747 7.70844 18.2906 8.04177C18.3997 8.37594 18.3056 8.7426 18.0489 8.98344L14.9322 11.9334Z" fill="#F0B400"/>
</svg>
